<svg width="32" height="32" viewBox="0 0 32 32" fill="none" xmlns="http://www.w3.org/2000/svg">
<path d="M3.48944 3.4893C5.34505 1.63641 8.35241 1.17898 11.9642 2.19868C14.9825 3.05364 18.1287 4.86296 20.9782 7.36252C20.8134 7.49321 20.6514 7.61846 20.4962 7.73963C17.738 5.33537 14.7061 3.59957 11.8036 2.77455C10.5974 2.4342 9.46605 2.26266 8.43273 2.26266C6.55943 2.26266 5.00742 2.8222 3.91557 3.9127C0.641366 7.18281 2.40031 14.3602 7.75475 20.511C7.9399 20.7234 8.12505 20.9317 8.31701 21.1414L8.49264 21.3306C8.60427 21.445 8.71182 21.5634 8.82618 21.6805C8.94054 21.7949 9.0549 21.9133 9.16926 22.0277C9.32718 22.1856 9.48647 22.3449 9.64712 22.496C9.72063 22.5668 9.79551 22.6376 9.86903 22.7043L10.3782 23.1753C10.4789 23.2625 10.5838 23.3537 10.6845 23.4408C13.4468 25.8519 16.4841 27.5931 19.3948 28.4154C22.7861 29.3793 25.5893 28.975 27.2829 27.28C28.9778 25.5864 29.3808 22.7832 28.421 19.392C27.596 16.4881 25.8575 13.4535 23.4532 10.6953C23.5744 10.5401 23.6996 10.3821 23.8303 10.2174C26.3326 13.0668 28.1419 16.2131 28.9942 19.2272C30.0179 22.8377 29.5605 25.8491 27.7076 27.702C26.4987 28.911 24.801 29.5236 22.7698 29.5236C21.6779 29.5236 20.4921 29.348 19.2328 28.9913C15.6823 27.9838 11.9574 25.664 8.7445 22.4497C2.06949 15.7733 -0.28848 7.26586 3.4908 3.48657L3.48944 3.4893Z" fill="#BEF264"/>
<path fill-rule="evenodd" clip-rule="evenodd" d="M8.52788 8.52789C12.0444 13.3078 13.0546 15.4221 9.48087 20.4144C9.68644 20.6363 9.89882 20.8555 10.118 21.0747C10.3372 21.2939 10.5564 21.5062 10.781 21.7145C15.772 18.1408 17.8917 19.151 22.6675 22.6675C19.151 17.8917 18.1408 15.7733 21.7145 10.781C22.2809 9.99005 22.9643 9.12419 23.773 8.1644C25.5891 6.00519 28.0301 3.36814 31.1968 0C27.8286 3.16665 25.1916 5.60766 23.0324 7.42379C22.0726 8.22838 21.2067 8.91317 20.4157 9.47816C15.4234 13.0519 13.3051 12.0417 8.52924 8.52789H8.52788Z" fill="#BEF264"/>
<path fill-rule="evenodd" clip-rule="evenodd" d="M4.57764e-05 31.1968C3.37227 28.0302 6.00933 25.5851 8.16853 23.773C8.04328 23.6519 7.9153 23.5266 7.79142 23.4027C7.66753 23.2775 7.54228 23.1536 7.42383 23.0256C5.61179 25.1875 3.16669 27.8246 4.57764e-05 31.1968Z" fill="#BEF264"/>
</svg>
