<svg width="69" height="24" viewBox="0 0 69 24" fill="none" xmlns="http://www.w3.org/2000/svg">
<path d="M5.45379 17.6835C4.36964 17.6835 3.41771 17.4522 2.59468 16.9894C1.77496 16.5267 1.13703 15.8788 0.680897 15.0426C0.228067 14.2063 0 13.2412 0 12.1405L0 11.8761C0 10.7622 0.228067 9.78712 0.680897 8.95087C1.13373 8.11462 1.76504 7.46677 2.57154 7.00403C3.37805 6.54128 4.30023 6.30991 5.34141 6.30991C6.38258 6.30991 7.24528 6.52476 8.02203 6.95776C8.79878 7.39076 9.40696 8.00885 9.84657 8.81535C10.2862 9.62185 10.5076 10.5672 10.5076 11.6513L10.5076 12.4413L1.7353 12.4413C1.77827 13.5982 2.15177 14.5038 2.8558 15.155C3.55984 15.8061 4.43905 16.1333 5.49345 16.1333C6.41564 16.1333 7.12628 15.9218 7.62539 15.4954C8.12449 15.069 8.50461 14.5633 8.76904 13.9783L10.263 14.7021C10.0416 15.155 9.73749 15.6111 9.35077 16.0639C8.96074 16.5168 8.45833 16.9002 7.83363 17.2076C7.20892 17.515 6.41564 17.6703 5.44718 17.6703L5.45379 17.6835ZM1.76174 11.0233L8.75251 11.0233C8.69301 10.0284 8.35256 9.25166 7.73116 8.69306C7.10646 8.13776 6.31318 7.8568 5.34472 7.8568C4.37625 7.8568 3.55653 8.13445 2.92521 8.69306C2.29389 9.25166 1.90717 10.0284 1.75843 11.0233H1.76174Z" fill="#334155"/>
<path d="M26.6904 21.7723L26.6904 6.62732H28.3827V8.40889H28.6901C28.9678 7.86681 29.4173 7.38424 30.042 6.95785C30.6634 6.53146 31.5327 6.31992 32.6466 6.31992C33.5688 6.31992 34.4149 6.54468 35.1851 6.9909C35.9552 7.43712 36.57 8.07174 37.0328 8.89146C37.4955 9.71118 37.7269 10.7028 37.7269 11.8596V12.1439C37.7269 13.2875 37.4988 14.2758 37.046 15.1121C36.5932 15.9483 35.9784 16.5863 35.2115 17.0259C34.4447 17.4655 33.5886 17.6869 32.6499 17.6869C31.9029 17.6869 31.2683 17.5878 30.7493 17.3895C30.2271 17.1911 29.8073 16.9399 29.4834 16.6325C29.1595 16.3251 28.9116 16.0111 28.7364 15.6872H28.429L28.429 21.7756H26.6937L26.6904 21.7723ZM32.1872 16.1434C33.3011 16.1434 34.2067 15.7897 34.9008 15.0757C35.595 14.3651 35.9453 13.3735 35.9453 12.0976V11.8993C35.9453 10.6235 35.5983 9.63185 34.9008 8.92121C34.2034 8.21056 33.3011 7.85359 32.1872 7.85359C31.0733 7.85359 30.1841 8.21056 29.4735 8.92121C28.7628 9.63185 28.4059 10.6235 28.4059 11.8993V12.0976C28.4059 13.3735 28.7628 14.3651 29.4735 15.0757C30.1841 15.7864 31.0898 16.1434 32.1872 16.1434Z" fill="#334155"/>
<path d="M45.2633 17.6835C44.1792 17.6835 43.2273 17.4522 42.4042 16.9894C41.5845 16.5267 40.9466 15.8788 40.4904 15.0426C40.0376 14.2063 39.8095 13.2412 39.8095 12.1405V11.8761C39.8095 10.7622 40.0376 9.78712 40.4904 8.95087C40.9433 8.11462 41.5746 7.46677 42.3811 7.00403C43.1876 6.54128 44.1098 6.30991 45.151 6.30991C46.1921 6.30991 47.0548 6.52476 47.8316 6.95776C48.6083 7.39076 49.2165 8.00885 49.6561 8.81535C50.0957 9.62185 50.3172 10.5672 50.3172 11.6513V12.4413L41.5448 12.4413C41.5878 13.5982 41.9613 14.5038 42.6653 15.155C43.3694 15.8061 44.2486 16.1333 45.303 16.1333C46.2252 16.1333 46.9358 15.9218 47.4349 15.4954C47.934 15.069 48.3141 14.5633 48.5786 13.9783L50.0726 14.7021C49.8511 15.155 49.547 15.6111 49.1603 16.0639C48.7703 16.5168 48.2679 16.9002 47.6432 17.2076C47.0185 17.515 46.2252 17.6703 45.2567 17.6703L45.2633 17.6835ZM41.5713 11.0233L48.562 11.0233C48.5025 10.0284 48.1621 9.25166 47.5407 8.69306C46.916 8.13776 46.1227 7.8568 45.1542 7.8568C44.1858 7.8568 43.3661 8.13445 42.7348 8.69306C42.1034 9.25166 41.7167 10.0284 41.568 11.0233H41.5713Z" fill="#334155"/>
<path d="M52.8752 17.3762V6.6273H54.5675V7.94613H54.8749C55.0666 7.47677 55.3575 7.13301 55.7542 6.91156C56.1508 6.6901 56.6697 6.58102 57.3143 6.58102H58.5901V8.16428H57.2052C56.4284 8.16428 55.8004 8.37912 55.3245 8.81212C54.8485 9.24512 54.6105 9.9161 54.6105 10.8251V17.3762H52.8752Z" fill="#334155"/>
<path d="M65.3595 17.3761C64.7447 17.3761 64.272 17.2076 63.9415 16.8704C63.611 16.5333 63.4457 16.0705 63.4457 15.4855V8.14436H60.2131V6.62722H63.4457V2.80295L65.181 2.80295V6.62722L68.6979 6.62722V8.14436L65.181 8.14436V15.2244C65.181 15.664 65.3926 15.8854 65.8189 15.8854H68.2153V17.3794H65.3562L65.3595 17.3761Z" fill="#334155"/>
<path fill-rule="evenodd" clip-rule="evenodd" d="M6.21704 24C17.2172 13.6675 18.0865 13.3403 23.656 17.4389C19.5574 11.8661 19.8846 11.0001 30.217 0C19.2169 10.3325 18.3476 10.6597 12.7781 6.56108C16.8767 12.1339 16.5495 12.9999 6.21704 24Z" fill="#334155"/>
</svg>
